<svg width="20" height="21" viewBox="0 0 20 21" fill="none" xmlns="http://www.w3.org/2000/svg">
<path d="M19.2579 1.75394C19.4922 1.79305 19.6485 1.91038 19.8047 2.06682C19.9219 2.26236 20 2.45791 20 2.65345C20 5.9386 19.1798 8.9891 17.5393 11.8049C15.8988 14.5426 13.7505 16.7327 11.0163 18.3361C8.20406 19.9787 5.15742 20.8 1.87643 20.8C1.64208 20.8 1.44678 20.7609 1.29054 20.6044C1.09525 20.4871 0.978068 20.2916 0.978068 20.0569L0.040642 15.9896C-0.0374768 15.794 0.00158262 15.5985 0.118761 15.3638C0.19688 15.1683 0.353117 15.0119 0.587474 14.9337L4.96213 13.0564C5.11836 12.9782 5.31366 12.9782 5.54802 13.0173C5.74332 13.0564 5.89955 13.1737 6.05579 13.3302L7.9697 15.6767C9.49302 14.9728 10.8601 14.0341 12.0319 12.8218C13.2037 11.6485 14.1801 10.2797 14.8832 8.75444L12.5397 6.799C12.3834 6.68167 12.2662 6.52523 12.2272 6.32969C12.1491 6.13414 12.1881 5.9386 12.2662 5.70395L14.1411 1.32375C14.2192 1.16731 14.3364 1.01088 14.5707 0.893548C14.766 0.81533 14.9613 0.776221 15.1957 0.81533L19.2579 1.75394Z" fill="white"/>
</svg>
