<svg width="20" height="20" viewBox="0 0 20 20" fill="none" xmlns="http://www.w3.org/2000/svg">
<path d="M10 0C11.7742 0 13.4677 0.483871 15 1.37097C16.5323 2.25806 17.7419 3.46774 18.629 5C19.5161 6.53226 20 8.22581 20 10C20 11.8145 19.5161 13.4677 18.629 15C17.7419 16.5323 16.5323 17.7823 15 18.6694C13.4677 19.5565 11.7742 20 10 20C8.18548 20 6.53226 19.5565 5 18.6694C3.46774 17.7823 2.21774 16.5323 1.33065 15C0.443548 13.4677 0 11.8145 0 10C0 8.22581 0.443548 6.53226 1.33065 5C2.21774 3.46774 3.46774 2.25806 5 1.37097C6.53226 0.483871 8.18548 0 10 0ZM12.2984 14.1129C12.379 14.1935 12.5 14.2339 12.6613 14.1935C12.7823 14.1935 12.9032 14.1129 12.9839 13.9919L14.1129 12.4597C14.1935 12.379 14.1935 12.2581 14.1935 12.0968C14.1935 11.9758 14.1129 11.8548 14.0323 11.7742L11.4516 9.91935V4.35484C11.4516 4.23387 11.371 4.1129 11.2903 4.03226C11.2097 3.95161 11.0887 3.87097 10.9677 3.87097H9.03226C8.87097 3.87097 8.75 3.95161 8.66935 4.03226C8.58871 4.1129 8.54839 4.23387 8.54839 4.35484V11.129C8.54839 11.2903 8.58871 11.4516 8.75 11.5323L12.2984 14.1129Z" fill="white"/>
</svg>
